<svg width="680" height="701" viewBox="0 0 680 701" fill="none" xmlns="http://www.w3.org/2000/svg">
<path d="M168.134 0C183.996 3.86562 207.063 11.0516 226.629 21.2531C241.004 28.7484 253.624 37.7766 260.891 46.55C268.157 55.3281 270.344 62.1125 267.791 70.9047L262.235 90.0516L282.135 88.8641C286.898 88.5781 289.86 88.6813 293.641 88.4547C297.423 88.2266 302.087 87.3516 306.563 85.5328C312.594 83.0828 320.754 78.2672 331.696 71.6109C332.268 78.8453 332.602 87.4047 332.332 96.6203C331.738 116.8 329.176 140.284 324.801 160.948C322.726 170.745 320.102 179.908 317.293 187.714C312.618 180.362 307.505 173.336 301.918 166.827C275.321 135.861 238.684 101.848 192.751 98.55C170.215 96.9297 146.918 106.869 126.26 117.941C120.015 106.011 110.234 96.1234 100.296 87.2062C90.2913 78.225 79.7554 69.9906 70.6866 62.2531C85.6116 51.7531 96.9523 46.5125 106.655 45.2922C119.055 43.7328 131.699 47.5578 151.71 59.0859L175.476 72.7766L168.132 0H168.134ZM188.127 126.555C188.998 126.526 189.87 126.542 190.74 126.602C223.266 128.936 255.927 156.442 280.583 185.148C302.212 210.331 317.083 249.414 325.349 281.33C314.621 283.091 303.146 284.783 291.655 285.127C274.546 285.642 259.687 282.637 252.071 276.017L241.071 266.464L231.912 277.792C224.168 287.367 215.033 299.803 209.537 314.473C206.755 321.895 205.037 330.298 205.321 338.859C185.81 334.734 167.93 327.669 160.19 318.766L151.977 309.323L141.643 316.386C126.009 327.07 110.663 339.17 100.027 355.817C98.4132 349.955 97.0038 343.839 96.2523 337.458C93.9038 317.555 96.5335 296.942 106.621 281.998C122.609 264.409 141.177 247.538 145.574 224.139C147.24 215.272 144.496 208.483 141.23 201.811C137.962 195.139 133.462 188.581 128.183 182.134C122.241 174.878 115.327 167.916 107.952 161.744C114.226 157.591 121.062 153.072 129.635 148.205C149.588 136.867 174.313 126.967 188.126 126.548L188.127 126.555ZM663.965 151.2C673.891 151.142 679.552 151.928 679.552 153.662C675.146 173.752 667.055 195.116 655.44 215.35C614.807 209.541 572.612 206.436 529.421 206.775C487.624 220.306 443.983 231.806 403.124 246.366C442.932 239.303 482.401 235.675 521.112 234.959C527.267 234.847 533.424 234.809 539.58 234.845C584.112 235.095 627.487 239.177 669.171 246.048C661.694 296.798 637.769 369.58 590.426 434.292C538.941 504.661 460.804 565.577 345.151 581.881C254.237 594.697 177.224 574.184 138.166 532.903C118.635 512.262 107.862 486.734 108.119 455.141C108.365 425.519 118.865 390.256 143.005 350.287C144.776 348.906 146.599 347.528 148.505 346.141C169.074 362.341 197.983 367.628 223.341 370.081L252.079 372.862L236.548 348.519C231.901 341.237 232.235 334.042 235.871 324.341C238.193 318.15 242.146 311.766 246.418 305.603C260.684 312.506 277.096 313.705 292.504 313.239C312.78 312.627 332.419 308.687 345.098 306.58L359.579 304.177L356.554 289.812C352.032 268.334 344.468 241.902 332.819 216.528C405.607 180.216 606.429 151.536 663.965 151.197V151.2ZM189.337 151.338C175.505 151.338 164.046 162.875 164.046 176.67C164.046 190.467 175.505 202.003 189.337 202.003C203.165 202.003 214.629 190.466 214.629 176.67C214.629 162.873 203.166 151.338 189.337 151.338ZM73.8585 172.384L76.5257 173.847C85.8351 178.964 97.9382 189.597 106.421 199.956C110.663 205.138 114.057 210.287 115.968 214.188C117.351 217.011 117.58 219.116 117.734 219.422C115.71 228.484 101.349 245.85 84.9741 263.987L84.3694 264.655L83.8601 265.394C81.008 269.513 78.5224 273.875 76.4319 278.428C58.5101 279.308 38.9851 277.252 16.0382 272.605L80.6476 224.266C80.6476 224.266 22.1522 225.434 0.763184 221.711C-6.57432 220.433 40.5976 186.98 73.8569 172.383L73.8585 172.384ZM488.965 311.278L461.596 317.762C464.14 328.491 471.493 335.512 479.338 341.212C487.182 346.916 496.329 351.536 505.901 355.828C514.291 359.591 522.968 363.013 531.205 366.294C504.257 377.481 469.115 385.847 440.668 378.412L427.957 375.089L423.782 387.55C420.498 397.347 422.532 407.738 426.86 415.827C431.182 423.914 437.509 430.573 444.754 436.675C451.641 442.477 459.485 447.73 467.623 452.472C465.26 453.097 463.326 453.691 460.727 454.323C435.487 460.453 399.462 466.808 363.524 469.445C327.591 472.083 291.515 470.733 267.362 463.112C255.287 459.3 246.507 454.05 241.416 448.186C236.323 442.322 233.916 435.975 234.916 425.311L206.913 422.689C205.319 439.702 210.351 455.303 220.179 466.627C230.007 477.947 243.638 485.119 258.898 489.934C289.423 499.564 327.754 500.27 365.585 497.492C403.418 494.714 440.516 488.173 467.366 481.653C480.788 478.392 491.501 475.228 499.216 472.114C503.076 470.556 505.899 469.642 509.868 466.169C511.852 464.431 515.865 461.177 515.477 453.538C515.287 449.719 513.268 445.964 511.265 443.9C509.265 441.838 507.455 440.939 506.002 440.314C490.752 433.758 473.874 424.423 462.874 415.161C460.687 413.306 458.625 411.308 456.702 409.18C501.587 412.345 545.941 393.3 571.973 377.227L593.294 364.062L570.948 352.722C555.583 344.925 534.783 337.952 517.416 330.159C508.729 326.266 500.998 322.18 495.874 318.456C490.754 314.737 489.046 311.612 488.968 311.273L488.965 311.278ZM532.937 533.519C548.468 549.422 571.468 564.933 595.718 577.347C605.624 564.947 616.271 553.191 627.663 542.594L646.816 563.191C638.246 571.159 630.019 580.031 622.188 589.463C631.133 593.072 639.944 596.142 648.305 598.514L640.627 625.569C630.229 622.616 619.371 618.928 608.432 614.577C608.438 640.967 611.229 670.42 618.638 690.852L592.201 700.445C586.505 684.742 583.208 666.925 581.535 649.039C574.074 662.227 567.448 675.406 561.838 687.998L536.146 676.552C547.021 652.136 561.208 625.833 578.296 600.895C552.069 587.406 527.399 570.219 509.593 550.133C517.579 544.889 525.366 539.348 532.937 533.52V533.519ZM61.9445 588.405C85.6288 588.702 112.199 600.681 138.835 617.302C149.967 624.247 160.643 631.898 170.798 640.208C181.282 632.148 192.251 623.502 203.391 614.848C207.481 611.672 211.585 608.515 215.704 605.377C228.019 608.361 240.919 610.57 254.305 611.989C243.285 619.739 231.935 628.291 220.641 637.062C210.979 644.566 201.373 652.175 191.938 659.491C199.685 667.391 206.704 675.631 212.63 684.077L189.608 700.233C184.129 692.423 177.134 684.416 169.177 676.613C161.224 682.363 153.465 687.68 146.021 692.183L131.463 668.12C133.923 666.626 136.355 665.084 138.755 663.495C108.432 659.855 77.7335 662.948 56.485 667.677L50.3757 640.223C66.9069 636.542 87.7976 633.625 110.401 633.544L110.698 633.547C89.4241 622.269 69.1241 616.011 58.8069 616.583L57.2444 588.505C58.809 588.419 60.3761 588.386 61.9429 588.406L61.9445 588.405Z" fill="black"/>
</svg>
