<svg width="778" height="675" viewBox="0 0 778 675" fill="none" xmlns="http://www.w3.org/2000/svg">
<path d="M777.5 225C777.5 210 767.5 200 752.5 200H627.5V150C627.5 107.5 595 75 552.5 75C537.5 75 527.5 85 527.5 100C527.5 115 537.5 125 552.5 125C567.5 125 577.5 135 577.5 150V200H472.5L412.5 50H452.5C467.5 50 477.5 40 477.5 25C477.5 10 467.5 0 452.5 0H377.5H152.5C150 0 145 -2.42144e-06 142.5 2.5C142.5 2.5 140 2.5 140 5C137.5 5 137.5 7.5 135 7.5L132.5 10C132.5 12.5 130 12.5 130 15C130 15 130 17.5 127.5 17.5V20L85 227.5C55 240 30 260 7.5 282.5C-2.5 292.5 -2.5 307.5 7.5 317.5C17.5 327.5 32.5 327.5 42.5 317.5C85 275 142.5 250 202.5 250C327.5 250 427.5 350 427.5 475C427.5 482.5 427.5 490 427.5 497.5C427.5 497.5 427.5 497.5 427.5 500C427.5 500 427.5 500 427.5 502.5C427.5 505 427.5 505 427.5 507.5C427.5 510 427.5 510 427.5 512.5C427.5 515 430 515 430 517.5L432.5 520C435 522.5 435 522.5 437.5 525L440 527.5C442.5 527.5 445 530 447.5 530H450C450 530 450 530 452.5 530H530C527.5 532.5 527.5 542.5 527.5 550C527.5 620 582.5 675 652.5 675C722.5 675 777.5 620 777.5 550C777.5 537.5 775 525 772.5 515C775 510 777.5 505 777.5 500V225ZM652.5 625C610 625 577.5 592.5 577.5 550C577.5 507.5 610 475 652.5 475C695 475 727.5 507.5 727.5 550C727.5 592.5 695 625 652.5 625Z" fill="black"/>
<path d="M202.5 275C92.5 275 2.5 365 2.5 475C2.5 585 92.5 675 202.5 675C312.5 675 402.5 585 402.5 475C402.5 365 312.5 275 202.5 275ZM202.5 550C160 550 127.5 517.5 127.5 475C127.5 432.5 160 400 202.5 400C245 400 277.5 432.5 277.5 475C277.5 517.5 245 550 202.5 550Z" fill="black"/>
</svg>
