<svg width="600" height="700" viewBox="0 0 600 700" fill="none" xmlns="http://www.w3.org/2000/svg">
<path d="M475 227.5V175C475 77.5 397.5 0 300 0C202.5 0 125 77.5 125 175V227.5C55 240 0 300 0 375C0 457.5 67.5 525 150 525H275V675C275 690 285 700 300 700C315 700 325 690 325 675V525H450C532.5 525 600 457.5 600 375C600 300 545 240 475 227.5ZM470 365C437.5 415 382.5 445 322.5 450C322.5 452.5 322.5 455 322.5 457.5V500C322.5 515 312.5 525 297.5 525C282.5 525 272.5 515 272.5 500V457.5C272.5 430 260 405 235 390C225 380 210 375 192.5 375H150C135 375 125 365 125 350C125 335 135 325 150 325H192.5C217.5 325 245 332.5 265 347.5C267.5 350 270 352.5 275 355V150C275 135 285 125 300 125C315 125 325 135 325 150V400C367.5 395 405 372.5 430 337.5C437.5 325 452.5 322.5 465 330C475 337.5 477.5 352.5 470 365Z" fill="black"/>
</svg>
