<svg width="325" height="694" viewBox="0 0 325 694" fill="none" xmlns="http://www.w3.org/2000/svg">
<path d="M325 268.75C325 261.25 320 256.25 312.5 256.25C300 256.25 287.5 258.75 275 261.25C305 231.25 325 191.25 325 143.75C325 136.25 320 131.25 312.5 131.25C275 131.25 240 143.75 212.5 166.25C230 111.25 215 46.25 172.5 3.75C167.5 -1.25 160 -1.25 155 3.75C110 48.75 97.5 111.25 115 166.25C87.5 143.75 52.5 131.25 15 131.25C5.00001 131.25 0 136.25 0 143.75C0 188.75 20 231.25 50 261.25C37.5 258.75 25 256.25 12.5 256.25C5 256.25 0 261.25 0 268.75C0 313.75 20 356.25 50 386.25C37.5 383.75 25 381.25 12.5 381.25C5 381.25 0 386.25 0 393.75C0 473.75 60 541.25 137.5 553.75V668.75C137.5 683.75 147.5 693.75 162.5 693.75C177.5 693.75 187.5 683.75 187.5 668.75V553.75C265 541.25 325 473.75 325 393.75C325 386.25 320 381.25 312.5 381.25C300 381.25 287.5 383.75 275 386.25C305 356.25 325 313.75 325 268.75ZM162.5 306.25C175 306.25 187.5 303.75 200 301.25C185 316.25 170 336.25 162.5 356.25C155 336.25 140 316.25 125 301.25C137.5 303.75 150 306.25 162.5 306.25ZM162.5 481.25C155 461.25 140 441.25 125 426.25C137.5 428.75 150 431.25 162.5 431.25C175 431.25 187.5 428.75 200 426.25C185 441.25 170 461.25 162.5 481.25Z" fill="black"/>
</svg>
