<svg width="627" height="686" viewBox="0 0 627 686" fill="none" xmlns="http://www.w3.org/2000/svg">
<path d="M86.8248 0C83.0124 0 79.0248 1.27828 76.1105 4.19257L4.37143 75.9317C-1.45714 81.7602 -1.45714 91.0658 4.37143 96.8944L61.6696 153.727C62.9328 155.828 64.6923 157.588 66.7938 158.851L150.645 243.167C152.776 234.194 157.554 226.062 164.62 219.876L166.949 217.546L155.303 205.9L206.079 155.124L220.986 170.497L243.347 150.466L159.03 66.1489C158.488 65.3122 157.864 64.5319 157.166 63.8198L155.769 62.8883C155.057 62.1909 154.276 61.5666 153.44 61.0249L97.0733 4.19257C94.159 1.27828 90.6373 0 86.8248 0ZM539.62 0C535.807 0 532.286 1.27828 529.371 4.19257L470.676 62.8882C469.012 63.9909 467.586 65.4166 466.483 67.0807L383.098 150.466L405.458 170.497L420.365 155.124L471.142 205.901L459.496 217.547L461.825 219.876C468.905 226.077 473.668 234.194 475.8 243.168L559.185 159.317C561.286 158.053 563.046 156.294 564.309 154.193L622.073 96.8945C627.902 91.0659 627.902 81.7603 622.073 75.9318L550.334 4.19257C547.42 1.27828 543.432 0 539.62 0ZM86.8248 35.8695L125.024 74.5342L74.713 124.845L36.0484 86.6459L86.8248 35.8695ZM539.62 35.8695L590.396 86.6459L551.732 124.845L501.421 74.5342L539.62 35.8695ZM146.452 95.4969L184.651 134.161L134.34 184.472L95.6758 146.273L146.452 95.4969ZM479.993 95.4969L530.769 146.273L492.104 184.472L441.794 134.161L479.993 95.4969ZM313.222 134.161C309.719 134.161 306.25 135.428 303.44 137.888L188.378 238.509H438.067L323.005 137.888C320.195 135.429 316.725 134.161 313.222 134.161ZM178.129 268.323L149.247 669.876C148.949 674.005 150.622 678.03 153.44 681.056C156.257 684.082 160.01 685.714 164.154 685.714H462.291C466.42 685.714 470.202 684.082 473.005 681.056C475.822 678.03 477.496 674.005 477.198 669.876L448.316 268.323L178.129 268.323ZM298.316 342.857H328.129V387.578H298.316V342.857ZM138.999 394.565L4.37143 529.193C-1.45714 535.021 -1.45714 544.327 4.37143 550.155L76.1105 621.894C79.0173 624.801 83.0087 626.087 86.8248 626.087C90.641 626.087 94.1664 624.801 97.0733 621.894L125.024 593.944L130.614 514.752L95.6758 479.814L134.34 441.615L135.738 442.546L138.999 394.565ZM487.446 394.565L490.707 442.547L492.105 441.615L530.769 479.814L495.831 514.752L501.422 593.944L529.372 621.895C532.279 624.787 535.804 626.087 539.62 626.087C543.436 626.087 547.428 624.801 550.335 621.895L622.074 550.155C627.902 544.327 627.902 535.021 622.074 529.193L487.446 394.565ZM74.713 501.242L125.024 551.553L86.8248 590.217L36.0484 539.441L74.713 501.242ZM551.732 501.242L590.396 539.441L539.62 590.217L501.421 551.553L551.732 501.242ZM313.222 536.646C337.923 536.646 357.943 556.666 357.943 581.366V655.901H268.502V581.366C268.502 556.666 288.522 536.646 313.222 536.646Z" fill="black"/>
</svg>
